<svg width="354" height="415" viewBox="0 0 354 415" fill="none" xmlns="http://www.w3.org/2000/svg">
<path d="M181.87 152.471C183.314 152.167 184.747 151.846 186.169 151.508C221.212 143.432 261.284 138.751 291.67 152.994C321.459 166.946 317.799 196.519 300.377 223.677C270.555 270.157 157.617 314.263 127.139 267.003C117.287 251.731 134.269 224.839 122.051 206.836C108.141 186.335 43.7659 199.3 56.6309 154.007C63.7606 128.891 82.0538 130.368 101.708 138.519C112.988 143.192 123.761 149.01 135.431 152.961C149.599 157.766 166.133 155.841 181.87 152.471Z" fill="#F37A20"/>
<path opacity="0.9" d="M181.87 152.471C183.314 152.167 184.747 151.846 186.169 151.508C221.212 143.432 261.284 138.751 291.67 152.994C321.459 166.946 317.799 196.519 300.377 223.677C270.555 270.157 157.617 314.263 127.139 267.003C117.287 251.731 134.269 224.839 122.051 206.836C108.141 186.335 43.7659 199.3 56.6309 154.007C63.7606 128.891 82.0538 130.368 101.708 138.519C112.988 143.192 123.761 149.01 135.431 152.961C149.599 157.766 166.133 155.841 181.87 152.471Z" fill="white"/>
<path d="M207.5 354.875C296.378 354.875 368.429 350.668 368.429 345.479C368.429 340.29 296.378 336.084 207.5 336.084C118.622 336.084 46.5713 340.29 46.5713 345.479C46.5713 350.668 118.622 354.875 207.5 354.875Z" fill="#F5F5F5"/>
<path d="M104.671 281.113H211.276V336.15C211.276 336.855 211.138 337.553 210.868 338.205C210.598 338.857 210.202 339.449 209.704 339.947C209.205 340.446 208.613 340.841 207.961 341.111C207.31 341.381 206.612 341.52 205.906 341.52H110.041C109.336 341.52 108.638 341.381 107.986 341.111C107.335 340.841 106.743 340.446 106.244 339.947C105.746 339.449 105.35 338.857 105.08 338.205C104.81 337.553 104.671 336.855 104.671 336.15V281.113Z" fill="#F37A20"/>
<path d="M104.671 281.113H180.11L170.831 269.235C169.81 267.932 167.286 266.878 165.187 266.878H97.3424C95.2508 266.878 94.371 267.932 95.3919 269.235L104.671 281.113Z" fill="#F37A20"/>
<path opacity="0.2" d="M104.671 281.113H180.11L170.831 269.235C169.81 267.932 167.286 266.878 165.187 266.878H97.3424C95.2508 266.878 94.371 267.932 95.3919 269.235L104.671 281.113Z" fill="black"/>
<path d="M211.277 281.113H135.846L145.126 273.369C146.146 272.539 148.67 271.833 150.77 271.833H218.605C220.705 271.833 221.577 272.522 220.556 273.369L211.277 281.113Z" fill="#F37A20"/>
<path opacity="0.2" d="M135.846 281.113H211.277V336.15C211.277 336.855 211.138 337.553 210.868 338.205C210.598 338.857 210.202 339.449 209.704 339.947C209.205 340.446 208.613 340.841 207.961 341.111C207.31 341.381 206.612 341.52 205.906 341.52H141.216C140.511 341.52 139.813 341.381 139.161 341.111C138.51 340.841 137.918 340.446 137.419 339.947C136.92 339.449 136.525 338.857 136.255 338.205C135.985 337.553 135.846 336.855 135.846 336.15V281.113Z" fill="white"/>
<path opacity="0.5" d="M114.034 281.113V318.861L116.64 316.803L118.474 318.861L120.068 316.57L121.703 318.861L123.977 317.143L126.484 318.861V281.113H114.034Z" fill="white"/>
<path d="M130.908 198.768L117.503 187.514" stroke="#F37A20" stroke-miterlimit="10"/>
<path d="M137.855 204.603L133.771 201.167" stroke="#F37A20" stroke-miterlimit="10"/>
<path d="M178.01 228.159L222.232 172.889L163.352 123.454L124.342 168.216L118.532 179.413C118.244 179.731 118.024 180.105 117.887 180.511C117.749 180.918 117.697 181.349 117.734 181.776C117.771 182.204 117.895 182.619 118.1 182.997C118.304 183.374 118.584 183.705 118.922 183.97L172.042 228.574C172.906 229.27 174.001 229.614 175.108 229.537C176.214 229.46 177.251 228.968 178.01 228.159Z" fill="#F37A20"/>
<path opacity="0.5" d="M147.682 187.397L141.316 197.648L143.881 198.204L144.752 200.578L146.453 200.677L147.242 202.711L149.325 203.317L150.927 205.865L157.293 195.614L147.682 187.397Z" fill="white"/>
<path opacity="0.1" d="M220.307 171.271L180.65 215.51L124.317 168.216L163.352 123.454L220.307 171.271Z" fill="black"/>
<path d="M220.307 171.271L180.65 215.51L197.067 216.721L236.11 171.959L220.307 171.271Z" fill="#F37A20"/>
<path opacity="0.3" d="M220.307 171.271L180.65 215.51L197.067 216.721L236.11 171.959L220.307 171.271Z" fill="black"/>
<path d="M147.557 122.757L107.892 167.004L124.317 168.216L163.352 123.454L147.557 122.757Z" fill="#F37A20"/>
<path opacity="0.4" d="M147.557 122.757L107.892 167.004L124.317 168.216L163.352 123.454L147.557 122.757Z" fill="black"/>
<path opacity="0.1" d="M208.098 184.891L220.307 171.271L163.352 123.454L156.065 141.017L208.098 184.891Z" fill="black"/>
<path opacity="0.2" d="M124.317 168.216L163.352 123.454L156.065 141.017L128.575 171.793L124.317 168.216Z" fill="black"/>
<path d="M234.06 87.98C234.218 88.5112 234.06 89.0341 233.711 89.1337C233.363 89.2333 232.956 88.8847 232.798 88.3535C232.641 87.8223 232.798 87.2994 233.147 87.1915C233.496 87.0836 233.911 87.4488 234.06 87.98Z" fill="#263238"/>
<path d="M234.118 89.0258C233.962 90.8521 233.554 92.648 232.906 94.3627C233.35 94.5166 233.822 94.5719 234.289 94.5246C234.757 94.4772 235.208 94.3285 235.612 94.0888L234.118 89.0258Z" fill="#ED847E"/>
<path d="M235.164 84.4359C235.234 84.3954 235.288 84.3304 235.313 84.2533C235.329 84.2131 235.336 84.1701 235.334 84.1269C235.333 84.0838 235.322 84.0415 235.304 84.0026C235.285 83.9637 235.259 83.9291 235.226 83.9008C235.193 83.8725 235.155 83.8513 235.114 83.8383C234.628 83.6519 234.104 83.5854 233.587 83.6447C233.069 83.7039 232.574 83.8871 232.143 84.1786C232.087 84.2355 232.053 84.3108 232.048 84.3906C232.043 84.4704 232.067 84.5493 232.115 84.6129C232.163 84.6765 232.233 84.7205 232.312 84.7367C232.39 84.753 232.471 84.7405 232.541 84.7015C232.886 84.4753 233.28 84.3348 233.69 84.2915C234.1 84.2481 234.514 84.3034 234.898 84.4525C234.941 84.4682 234.987 84.4748 235.033 84.472C235.079 84.4691 235.123 84.4568 235.164 84.4359Z" fill="#263238"/>
<path d="M252.519 91.5324C252.884 95.9314 253.972 103.982 256.57 105.842C256.57 105.842 255.955 111.129 246.61 112.482C236.367 113.992 240.966 108.116 240.966 108.116C246.352 105.958 245.597 101.833 244.053 98.0811L248.004 93.5493C249.523 91.8727 252.32 89.2831 252.519 91.5324Z" fill="#FFC3BD"/>
<path d="M259.915 107.991C260.745 107.236 259.085 104.215 258.064 103.791C255.391 102.671 244.46 103.791 240.351 107.319C240.011 107.903 239.805 108.555 239.749 109.229C239.693 109.902 239.788 110.58 240.028 111.212L259.915 107.991Z" fill="white"/>
<path d="M294.725 329.85C294.455 329.973 294.163 330.041 293.867 330.05C293.57 330.058 293.275 330.007 292.998 329.9C292.889 329.814 292.809 329.696 292.769 329.562C292.729 329.428 292.731 329.286 292.774 329.153C292.796 329.045 292.842 328.942 292.908 328.853C292.974 328.764 293.059 328.691 293.156 328.639C294.052 328.116 296.269 328.805 296.36 328.838C296.39 328.846 296.418 328.863 296.438 328.886C296.459 328.91 296.472 328.939 296.476 328.971C296.48 329.003 296.475 329.037 296.46 329.066C296.445 329.096 296.422 329.12 296.393 329.137C295.863 329.43 295.304 329.67 294.725 329.85ZM293.513 328.838L293.322 328.921C293.265 328.951 293.216 328.994 293.177 329.046C293.139 329.097 293.112 329.157 293.098 329.22C293.04 329.518 293.156 329.61 293.189 329.635C293.588 329.917 294.941 329.51 295.878 329.037C295.114 328.797 294.307 328.729 293.513 328.838Z" fill="#F37A20"/>
<path d="M296.36 329.145C296.333 329.153 296.304 329.153 296.277 329.145C295.447 328.979 293.712 327.941 293.621 327.161C293.608 327.038 293.638 326.915 293.706 326.812C293.774 326.709 293.876 326.633 293.994 326.597C294.109 326.545 294.234 326.519 294.36 326.519C294.485 326.519 294.61 326.545 294.725 326.597C295.688 326.995 296.435 328.854 296.459 328.929C296.476 328.954 296.485 328.982 296.485 329.012C296.485 329.042 296.476 329.07 296.459 329.095C296.448 329.11 296.433 329.123 296.415 329.132C296.398 329.14 296.379 329.145 296.36 329.145ZM294.202 326.879C294.177 326.872 294.151 326.872 294.127 326.879C293.936 326.962 293.945 327.061 293.953 327.103C294.003 327.568 295.181 328.406 296.02 328.713C295.771 328.174 295.19 327.128 294.6 326.879C294.472 326.83 294.33 326.83 294.202 326.879Z" fill="#F37A20"/>
<path d="M246.078 338.764C245.19 338.764 244.335 338.64 244.045 338.242C243.971 338.137 243.931 338.013 243.931 337.885C243.931 337.757 243.971 337.632 244.045 337.528C244.1 337.432 244.174 337.348 244.263 337.281C244.351 337.214 244.452 337.165 244.56 337.138C245.713 336.831 248.137 338.208 248.236 338.266C248.267 338.281 248.292 338.306 248.308 338.336C248.324 338.366 248.329 338.401 248.324 338.435C248.318 338.468 248.302 338.499 248.277 338.523C248.252 338.546 248.221 338.561 248.187 338.565C247.491 338.695 246.786 338.762 246.078 338.764ZM244.983 337.42C244.876 337.416 244.769 337.43 244.667 337.461C244.534 337.491 244.418 337.572 244.344 337.686C244.228 337.893 244.269 337.993 244.344 338.051C244.667 338.499 246.419 338.507 247.664 338.325C246.837 337.853 245.926 337.546 244.983 337.42Z" fill="#F37A20"/>
<path d="M248.17 338.574H248.104C247.274 338.2 245.614 336.698 245.738 335.918C245.738 335.735 245.904 335.503 246.352 335.461C246.514 335.443 246.679 335.459 246.834 335.507C246.99 335.556 247.134 335.636 247.257 335.743C248.145 336.465 248.328 338.333 248.336 338.408C248.341 338.436 248.337 338.466 248.325 338.492C248.313 338.519 248.294 338.541 248.27 338.557C248.239 338.573 248.204 338.579 248.17 338.574ZM246.51 335.768H246.41C246.112 335.768 246.095 335.918 246.087 335.951C246.012 336.424 247.141 337.611 247.987 338.117C247.915 337.325 247.596 336.576 247.074 335.976C246.919 335.838 246.717 335.764 246.51 335.768Z" fill="#F37A20"/>
<path d="M255.789 338.408H248.859L248.17 322.372H255.1L255.789 338.408Z" fill="#FFC3BD"/>
<path d="M304.469 327.46L298.086 329.659L291.463 314.545L297.845 312.346L304.469 327.46Z" fill="#FFC3BD"/>
<path d="M296.567 328.074L304.037 325.792C304.169 325.751 304.311 325.757 304.44 325.808C304.568 325.86 304.675 325.953 304.743 326.074L307.855 331.552C307.93 331.686 307.974 331.835 307.983 331.988C307.992 332.141 307.967 332.294 307.908 332.436C307.85 332.578 307.761 332.705 307.647 332.808C307.532 332.911 307.397 332.986 307.249 333.029C304.635 333.784 303.332 334.017 300.062 335.021C298.045 335.635 292.965 337.561 290.102 338.134C287.238 338.706 286.317 335.967 287.429 335.478C292.409 333.278 294.451 330.78 295.638 328.838C295.845 328.479 296.175 328.208 296.567 328.074Z" fill="#263238"/>
<path d="M248.909 337.603H256.47C256.607 337.604 256.739 337.652 256.846 337.738C256.953 337.823 257.028 337.942 257.059 338.076L258.429 344.234C258.463 344.383 258.463 344.537 258.428 344.686C258.394 344.834 258.326 344.973 258.23 345.091C258.134 345.209 258.012 345.304 257.874 345.369C257.736 345.433 257.585 345.465 257.433 345.463C254.702 345.421 250.793 345.255 247.332 345.255C243.323 345.255 241.638 345.479 236.932 345.479C234.093 345.479 233.305 342.607 234.492 342.342C239.912 341.155 242.559 341.03 247.24 338.142C247.737 337.813 248.314 337.627 248.909 337.603Z" fill="#263238"/>
<path d="M269.036 110.257C271.053 112.108 272.796 113.959 274.605 115.893C276.415 117.827 278.091 119.827 279.718 121.96C281.417 124.127 282.959 126.413 284.333 128.799C285.084 130.115 285.733 131.486 286.275 132.9C286.416 133.29 286.557 133.663 286.674 134.087C286.81 134.515 286.923 134.95 287.014 135.39L287.155 136.079L287.255 136.842C287.348 137.542 287.348 138.251 287.255 138.95C287.064 140.271 286.576 141.531 285.827 142.636C285.281 143.442 284.64 144.18 283.918 144.835C282.758 145.888 281.489 146.814 280.133 147.599C277.745 148.965 275.246 150.128 272.663 151.077C267.764 152.895 262.715 154.284 257.574 155.227L256.121 150.247C260.628 148.296 265.193 146.188 269.401 143.939C271.45 142.864 273.422 141.649 275.303 140.303C276.086 139.747 276.807 139.106 277.452 138.394C277.648 138.184 277.813 137.946 277.942 137.689C278.008 137.548 277.942 137.564 277.859 137.863C277.801 138.419 277.809 137.988 277.676 137.689C277.635 137.548 277.56 137.357 277.486 137.174C277.411 136.992 277.32 136.784 277.228 136.585C276.779 135.68 276.277 134.801 275.726 133.954C274.444 132.05 273.059 130.219 271.576 128.467C270.049 126.658 268.439 124.857 266.787 123.089C265.135 121.321 263.4 119.537 261.807 117.893L269.036 110.257Z" fill="#FFC3BD"/>
<path d="M258.022 149.458L251.49 151.434L255.69 158.339C255.69 158.339 259.549 156.746 260.404 153.467L258.022 149.458Z" fill="#FFC3BD"/>
<path d="M248.851 153.882L251.424 159.576L255.648 158.347L251.449 151.433L248.851 153.882Z" fill="#FFC3BD"/>
<path d="M253.731 112.133C253.109 118.773 267.152 129.048 267.152 129.048L280.673 119.794C278.325 115.464 274.893 111.817 270.713 109.211C262.961 104.248 254.511 103.883 253.731 112.133Z" fill="#F37A20"/>
<g opacity="0.3">
<path opacity="0.3" d="M253.731 112.133C253.109 118.773 267.152 129.048 267.152 129.048L280.673 119.794C278.325 115.464 274.893 111.817 270.713 109.211C262.961 104.248 254.511 103.883 253.731 112.133Z" fill="white"/>
</g>
<path d="M230.74 111.602C230.74 111.602 224.673 120.914 239.082 170.864L275.718 165.452C275.203 160.389 269.078 138.303 268.87 114.158C268.862 112.992 268.617 111.84 268.151 110.771C267.685 109.702 267.007 108.739 266.159 107.939C265.31 107.14 264.308 106.52 263.214 106.118C262.119 105.716 260.954 105.54 259.79 105.601C258.728 105.659 257.632 105.734 256.545 105.842C251.315 106.308 246.116 107.076 240.974 108.141C237.479 109.03 234.057 110.187 230.74 111.602Z" fill="#F37A20"/>
<g opacity="0.3">
<path opacity="0.3" d="M230.74 111.602C230.74 111.602 224.673 120.914 239.082 170.864L275.718 165.452C275.203 160.389 269.078 138.303 268.87 114.158C268.862 112.992 268.617 111.84 268.151 110.771C267.685 109.702 267.007 108.739 266.159 107.939C265.31 107.14 264.308 106.52 263.214 106.118C262.119 105.716 260.954 105.54 259.79 105.601C258.728 105.659 257.632 105.734 256.545 105.842C251.315 106.308 246.116 107.076 240.974 108.141C237.479 109.03 234.057 110.187 230.74 111.602Z" fill="white"/>
</g>
<path opacity="0.2" d="M229.844 127.654L229.968 127.513L238.584 128.276C239.895 133.837 235.098 141.424 232.566 144.943C231.347 139.233 230.439 133.462 229.844 127.654Z" fill="black"/>
<path opacity="0.2" d="M248.17 322.38L248.527 330.647H255.457L255.101 322.38H248.17Z" fill="black"/>
<path opacity="0.2" d="M297.845 312.346L291.463 314.545L294.882 322.339L301.265 320.139L297.845 312.346Z" fill="black"/>
<path d="M251.614 81.6056C253.142 88.3037 254.37 92.1466 252.038 96.5456C248.535 103.094 239.521 102.463 236.027 96.3547C232.881 90.8518 230.906 80.8254 236.583 76.3102C237.827 75.3113 239.306 74.6462 240.879 74.378C242.451 74.1098 244.067 74.2473 245.572 74.7775C247.076 75.3076 248.421 76.2129 249.479 77.4078C250.536 78.6026 251.271 80.0474 251.614 81.6056Z" fill="#FFC3BD"/>
<path d="M238.16 88.1709L235.612 89.7313L235.853 81.0163C234.21 81.0868 232.589 80.6175 231.238 79.68C232.159 78.8002 246.502 73.7787 250.975 74.6502C251.44 74.4593 252.005 73.5961 252.005 73.5961C252.005 73.5961 252.179 74.6834 251.424 75.0984C251.971 74.9905 253.341 75.2561 253.723 76.0612C253.094 75.8896 252.427 75.9274 251.822 76.1691C251.822 76.1691 256.802 76.9244 255.034 83.83C253.05 91.4411 253.706 95.8152 253.706 95.8152C253.706 95.8152 250.004 98.6787 246.784 98.1475C243.348 94.3627 238.384 89.8143 238.16 88.1709Z" fill="#263238"/>
<path d="M233.28 78.9911C229.238 78.9911 227.785 77.0157 226.748 75.3557C229.653 75.0486 235.703 73.1811 240.194 72.8657C244.684 72.5503 249.606 73.3886 248.12 75.3557C246.635 77.3228 233.28 78.9911 233.28 78.9911Z" fill="#263238"/>
<path d="M234.168 77.19C230.848 76.7252 227.611 73.5961 230.101 70.5998C231.022 72.7993 237.239 72.542 241.655 71.6207C247.465 70.4089 251.49 72.3677 249.432 76.3268C248.303 78.4931 234.168 77.19 234.168 77.19Z" fill="#263238"/>
<path d="M241.746 86.1872C242.221 87.8261 242.145 89.5756 241.53 91.1672C240.7 93.2505 238.857 92.8272 237.895 91.0261C237.065 89.3661 236.434 86.3532 237.845 84.8509C239.256 83.3486 241.148 84.2201 241.746 86.1872Z" fill="#FFC3BD"/>
<path d="M252.079 168.947C252.079 168.947 258.022 219.535 262.338 239.355C267.061 261.068 290.359 320.264 290.359 320.264L301.979 316.247C301.979 316.247 287.039 271.676 283.072 241.323C280.025 218.016 275.685 165.452 275.685 165.452L252.079 168.947Z" fill="#263238"/>
<path d="M287.387 316.545C287.329 316.545 289.77 321.525 289.77 321.525L303.34 317.118L301.746 313.068L287.387 316.545Z" fill="#F37A20"/>
<path opacity="0.3" d="M255.358 194.901C257.217 208.961 259.599 225.611 261.691 236.243C264.77 219.95 265.492 199.374 255.358 194.901Z" fill="black"/>
<path d="M239.081 170.864C239.081 170.864 234.151 218.39 234.931 239.505C235.712 261.467 245.971 329.045 245.971 329.045H257.698C257.698 329.045 255.54 262.745 256.038 241.181C256.611 217.667 265.426 166.971 265.426 166.971L239.081 170.864Z" fill="#263238"/>
<path d="M243.688 324.372C243.638 324.372 244.352 329.236 244.352 329.236H258.62L259.01 324.895L243.688 324.372Z" fill="#F37A20"/>
<path d="M236.807 123.272C235.513 125.33 234.201 127.181 232.84 129.082C231.479 130.982 230.051 132.817 228.599 134.643C225.638 138.347 222.429 141.846 218.996 145.117C218.066 145.947 217.211 146.777 216.207 147.532L215.476 148.122L215.111 148.412C214.978 148.52 214.92 148.578 214.646 148.777C213.824 149.364 212.921 149.828 211.965 150.155C210.486 150.661 208.938 150.94 207.376 150.985C206.053 151.03 204.73 150.971 203.416 150.811C198.616 150.182 193.932 148.856 189.514 146.877L190.95 141.897C195.196 142.401 199.473 142.606 203.748 142.511C204.694 142.461 205.636 142.359 206.57 142.204C207.274 142.101 207.958 141.888 208.596 141.573C208.795 141.465 208.903 141.357 208.878 141.332C208.853 141.307 208.986 141.224 209.06 141.15L209.343 140.892L209.899 140.37C210.646 139.706 211.351 138.9 212.082 138.17C213.518 136.626 214.945 135.041 216.298 133.356C217.651 131.671 219.02 129.978 220.348 128.235C221.676 126.492 222.963 124.724 224.258 122.956C225.553 121.188 226.814 119.329 228.009 117.611L236.807 123.272Z" fill="#FFC3BD"/>
<path d="M241.63 121.072C244.418 130.202 228.225 140.32 228.225 140.32L217.701 126.915C220.073 122.495 223.002 118.398 226.416 114.723C233.579 106.929 239.505 114.125 241.63 121.072Z" fill="#F37A20"/>
<g opacity="0.3">
<path opacity="0.3" d="M241.63 121.072C244.418 130.202 228.225 140.32 228.225 140.32L217.701 126.915C220.073 122.495 223.002 118.398 226.416 114.723C233.579 106.929 239.505 114.125 241.63 121.072Z" fill="white"/>
</g>
<path d="M193.39 142.204L184.866 140.643L185.762 148.014C185.762 148.014 190.195 150.504 193.407 146.611L193.39 142.204Z" fill="#FFC3BD"/>
<path d="M181.579 142.303L183.422 147.624L185.746 148.014L184.849 140.643L181.579 142.303Z" fill="#FFC3BD"/>
</svg>
