<svg width="136" height="140" viewBox="0 0 136 140" fill="none" xmlns="http://www.w3.org/2000/svg">
<path d="M9.53651 7.42874C1.07602 11.9351 -2.13453 22.4571 2.36664 30.9305L33.2935 89.1535C37.7936 97.6257 48.301 100.841 56.7625 96.3344C65.223 91.8269 68.4336 81.3049 63.9335 72.8326L33.0066 14.6097C28.5054 6.13632 17.9981 2.92129 9.53651 7.42874Z" fill="#EAB875"/>
<path d="M63.9335 72.8316L33.0066 14.6097C28.5054 6.13632 17.9981 2.92129 9.53651 7.42874C9.08 7.67227 8.64162 7.9361 8.21603 8.21274C15.1363 5.40787 23.7717 9.24454 28.0287 17.2607L58.9566 75.4826C63.2146 83.4988 61.5645 92.8139 55.3749 96.9923C55.842 96.7937 56.306 96.5768 56.7625 96.3333C65.223 91.8269 68.4336 81.3049 63.9335 72.8316Z" fill="#C68D4E"/>
<path d="M31.6008 52.7062C30.2142 50.0957 23.8464 50.7729 17.3784 54.2175C16.6744 54.5924 16.0013 54.9855 15.3582 55.3893L20.3009 64.6936C20.9953 64.3849 21.6961 64.0453 22.4001 63.6714C28.8681 60.2257 32.9874 55.3166 31.6008 52.7062Z" fill="#FFF7AF"/>
<path d="M41.4383 71.2262C40.0517 68.6157 33.6839 69.2929 27.2159 72.7386C26.513 73.1125 25.8399 73.5056 25.1957 73.9093L30.1384 83.2137C30.8328 82.906 31.5336 82.5664 32.2376 82.1915C38.7056 78.7457 42.8249 73.8367 41.4383 71.2262Z" fill="#FFF7AF"/>
<path d="M7.54085 35.6975C6.83688 36.0724 6.16384 36.4644 5.52066 36.8692L10.4634 46.1736C11.1578 45.8649 11.8586 45.5252 12.5615 45.1503C19.0295 41.7056 23.1499 36.7966 21.7633 34.1861C20.3767 31.5756 14.0089 32.2517 7.54085 35.6975Z" fill="#FFF7AF"/>
<path d="M67.3094 5.25726V17.0129C67.3094 17.3611 67.591 17.6431 67.9387 17.6431H85.1957C85.5434 17.6431 85.825 17.3611 85.825 17.0129V5.25726C85.825 2.35413 83.4741 0 80.575 0H72.5593C69.6602 0 67.3094 2.35413 67.3094 5.25726Z" fill="#ED5176"/>
<path d="M80.575 0H75.9661C78.3362 0 80.2572 2.35413 80.2572 5.25726V17.0129C80.2572 17.3611 80.0268 17.6431 79.743 17.6431H85.1957C85.5434 17.6431 85.8239 17.3611 85.8239 17.0129V5.25726C85.825 2.35413 83.4741 0 80.575 0Z" fill="#BA365F"/>
<path d="M84.2986 25.0719V17.6431H68.8357V25.0719C68.8357 26.9336 67.8971 28.6725 66.3345 29.6829C63.6498 31.4186 59.6179 34.2694 58.4915 36.3885C53.4304 45.9151 55.9754 79.5511 55.9754 79.5511H97.1579C97.1579 79.5511 99.7029 45.9151 94.6417 36.3885C93.5154 34.2694 89.4835 31.4186 86.7988 29.6829C85.2373 28.6725 84.2986 26.9336 84.2986 25.0719Z" fill="#804C68"/>
<path d="M94.6417 36.3885C93.5164 34.2705 89.4835 31.4197 86.7988 29.6829C85.2372 28.6736 84.2986 26.9336 84.2986 25.0719V17.6431H79.0092V25.0719C79.0092 26.9336 79.7772 28.6725 81.0539 29.6829C83.248 31.4186 86.5439 34.2694 87.4644 36.3885C91.6008 45.9151 89.5208 79.5511 89.5208 79.5511H97.159C97.159 79.5511 99.7029 45.9151 94.6417 36.3885Z" fill="#60364E"/>
<path d="M107.64 48.7584H81.8571L74.1123 58.506V104.243H115.383V58.506L107.64 48.7584Z" fill="#E9E9EA"/>
<path d="M107.64 48.7584H102.497L109.054 58.506V104.243H115.383V58.506L107.64 48.7584Z" fill="#C5C4CC"/>
<path d="M84.3455 37.8284H105.15C106.525 37.8284 107.64 38.9435 107.64 40.3203V48.7584H81.8571L81.8571 40.3203C81.8571 38.9435 82.9707 37.8284 84.3455 37.8284Z" fill="#C8E7F7"/>
<path d="M105.15 37.8284H100.207C101.472 37.8284 102.497 38.8548 102.497 40.1216L102.497 48.7584H107.64V40.3203C107.64 38.9445 106.525 37.8284 105.15 37.8284Z" fill="#8CBCD6"/>
<path d="M55.5498 57.2478C55.5551 57.2435 55.5594 57.2403 55.5647 57.236C59.3001 54.2229 59.3161 54.209 68.1509 47.0825C68.4752 46.823 68.777 46.5271 69.049 46.1928C71.1247 43.6453 70.745 39.8962 68.2011 37.8177C65.6572 35.7402 61.9133 36.1205 59.8376 38.6668C59.5656 39.0012 59.3363 39.3568 59.1486 39.7264C53.9499 49.8244 53.9392 49.8436 51.7419 54.1128C51.7387 54.1182 51.7355 54.1235 51.7334 54.1289L51.7313 54.1321C51.1969 55.1681 51.439 56.4723 52.3776 57.2392C53.3163 58.0061 54.64 57.9826 55.5466 57.2488L55.5498 57.2478Z" fill="#7FAB38"/>
<path d="M47.3549 57.2478C47.3495 57.2435 47.3453 57.2403 47.3399 57.236C43.6046 54.2229 43.5875 54.209 34.7527 47.0825C34.4295 46.823 34.1276 46.5271 33.8546 46.1928C31.78 43.6453 32.1597 39.8962 34.7036 37.8177C37.2464 35.7402 40.9914 36.1205 43.066 38.6668C43.339 39.0012 43.5673 39.3568 43.7561 39.7264C48.9548 49.8244 48.9655 49.8436 51.1627 54.1128C51.1659 54.1182 51.1681 54.1235 51.1713 54.1289L51.1723 54.1321C51.7078 55.1681 51.4657 56.4723 50.527 57.2392C49.5884 58.0061 48.2636 57.9826 47.357 57.2488L47.3549 57.2478Z" fill="#7FAB38"/>
<path d="M55.2405 55.4266C55.2426 55.417 55.2447 55.4074 55.2469 55.3989C56.7722 48.1699 56.7796 48.1378 60.388 31.0416C60.5224 30.4178 60.5939 29.7716 60.5939 29.1072C60.5939 24.0507 56.5012 19.9524 51.4518 19.9524C46.4024 19.9524 42.3097 24.0507 42.3097 29.1072C42.3097 29.7716 42.3823 30.4178 42.5156 31.0416C46.1251 48.1378 46.1315 48.1699 47.6578 55.3989C47.6599 55.4074 47.661 55.417 47.6631 55.4266L47.6642 55.4309H47.6653C48.0343 57.1869 49.5884 58.506 51.4518 58.506C53.3152 58.506 54.8704 57.1869 55.2394 55.4309L55.2405 55.4266Z" fill="#AED559"/>
<path d="M66.7494 70.4454C66.9787 69.3762 67.1035 68.2675 67.1035 67.1289C67.1035 58.4729 60.0958 51.4554 51.4518 51.4554C42.8078 51.4554 35.8001 58.4729 35.8001 67.1289C35.8001 68.2675 35.9249 69.3762 36.1553 70.4454C42.5924 100.609 42.6073 100.681 45.2152 112.899C45.7965 115.816 48.3671 118.015 51.4518 118.015C54.5365 118.015 57.1081 115.816 57.6894 112.899C60.2963 100.681 60.3123 100.609 66.7494 70.4454Z" fill="#FFCD34"/>
<path d="M51.4518 51.4554C50.8182 51.4554 50.1964 51.4981 49.582 51.5707C55.6874 52.4968 60.4232 59.1063 60.4232 67.1289C60.4232 68.2675 60.3251 69.3762 60.1438 70.4454C55.0805 100.609 55.0687 100.681 53.0176 112.898C52.6571 115.199 51.3206 117.048 49.5831 117.73C50.174 117.911 50.8012 118.015 51.4518 118.015C54.5365 118.015 57.1081 115.816 57.6894 112.898C60.2963 100.681 60.3123 100.609 66.7494 70.4454C66.9798 69.3762 67.1035 68.2675 67.1035 67.1289C67.1035 58.4729 60.0958 51.4554 51.4518 51.4554Z" fill="#E69012"/>
<path d="M14.0078 83.2906L19.8689 133.463C20.3041 137.19 23.4571 140 27.2041 140H108.796C112.543 140 115.696 137.19 116.131 133.463L121.992 83.2906H14.0078Z" fill="#AED559"/>
<path d="M121.249 89.6597L121.992 83.2906H14.0078L14.7513 89.6597H121.249Z" fill="#7FAB38"/>
<path d="M114.96 83.2906L109.099 133.463C108.664 137.19 105.511 140 101.764 140H108.796C112.543 140 115.696 137.19 116.131 133.463L121.992 83.2906H114.96Z" fill="#7FAB38"/>
<path d="M6.35796 72.4876V79.3834C6.35796 81.541 8.1051 83.2906 10.2597 83.2906H125.74C127.895 83.2906 129.642 81.541 129.642 79.3834V72.4876C129.642 70.329 127.895 68.5794 125.74 68.5794H10.2597C8.1051 68.5794 6.35796 70.329 6.35796 72.4876Z" fill="#90B6E1"/>
<path d="M125.74 68.5794H118.595C120.75 68.5794 122.497 70.329 122.497 72.4876V79.3834C122.497 81.541 120.75 83.2906 118.595 83.2906H125.74C127.895 83.2906 129.642 81.541 129.642 79.3834V72.4876C129.642 70.329 127.895 68.5794 125.74 68.5794Z" fill="#5692D8"/>
<path d="M132.583 128.253C131.049 128.47 129.464 127.772 128.616 126.359L100.617 79.6355C99.4874 77.7502 100.098 75.3053 101.979 74.1742C103.863 73.0431 106.303 73.654 107.434 75.5392L135.433 122.263C136.562 124.147 135.952 126.593 134.071 127.724C133.599 128.007 133.094 128.18 132.583 128.253Z" fill="#575B7A"/>
<path d="M3.41727 128.253C4.95108 128.47 6.53609 127.772 7.38406 126.359L35.383 79.6355C36.5126 77.7502 35.9025 75.3053 34.021 74.1742C32.1384 73.0431 29.6968 73.654 28.5673 75.5392L0.567237 122.263C-0.562322 124.148 0.047789 126.593 1.92932 127.724C2.40077 128.007 2.90635 128.18 3.41727 128.253Z" fill="#575B7A"/>
<path d="M44.1006 103.85C44.1006 105.799 42.5231 107.38 40.5754 107.38C38.6288 107.38 37.0513 105.799 37.0513 103.85V96.8599C37.0513 94.9106 38.6288 93.3298 40.5754 93.3298C42.522 93.3298 44.1006 94.9106 44.1006 96.8599V103.85Z" fill="#7FAB38"/>
<path d="M57.8132 126.688C57.8132 128.637 56.2346 130.218 54.288 130.218C52.3414 130.218 50.7628 128.637 50.7628 126.688V119.698C50.7628 117.749 52.3414 116.168 54.288 116.168C56.2346 116.168 57.8132 117.749 57.8132 119.698V126.688Z" fill="#7FAB38"/>
<path d="M71.5247 103.85C71.5247 105.799 69.9471 107.38 68.0005 107.38C66.0539 107.38 64.4753 105.799 64.4753 103.85V96.8599C64.4753 94.9106 66.0539 93.3298 68.0005 93.3298C69.9471 93.3298 71.5247 94.9106 71.5247 96.8599V103.85Z" fill="#7FAB38"/>
<path d="M85.2373 126.688C85.2373 128.637 83.6586 130.218 81.712 130.218C79.7654 130.218 78.1868 128.637 78.1868 126.688V119.698C78.1868 117.749 79.7654 116.168 81.712 116.168C83.6586 116.168 85.2373 117.749 85.2373 119.698V126.688Z" fill="#7FAB38"/>
<path d="M98.9488 103.85C98.9488 105.799 97.3712 107.38 95.4235 107.38C93.4769 107.38 91.8994 105.799 91.8994 103.85V96.8599C91.8994 94.9106 93.4769 93.3298 95.4235 93.3298C97.3701 93.3298 98.9488 94.9106 98.9488 96.8599V103.85Z" fill="#7FAB38"/>
<path d="M111.877 60.5568H101.45C100.318 60.5568 99.4021 59.6382 99.4021 58.506C99.4021 57.3727 100.318 56.4552 101.45 56.4552H111.877C113.009 56.4552 113.925 57.3727 113.925 58.506C113.925 59.6382 113.009 60.5568 111.877 60.5568Z" fill="#C5C4CC"/>
</svg>
